<svg width="1090" height="177" viewBox="0 0 1090 177" fill="none" xmlns="http://www.w3.org/2000/svg">
<path d="M925.535 39.0305C925.523 37.4284 925.747 35.3735 926.495 33.9343C926.726 33.4905 926.731 33.404 927.12 33.0589C927.657 32.5826 928.465 32.6986 928.949 32.3058C929.554 31.8152 930.078 30.666 930.109 29.9139C930.144 29.0447 929.256 28.1907 929.525 27.295C929.675 26.7963 930.064 26.7047 930.321 26.2945C931.19 24.9072 932.721 23.0222 931.493 21.4517C931.123 20.9795 930.484 20.6426 930.058 20.2232C929.498 19.6726 929.164 19.0039 928.557 18.5418C927.21 17.5168 925.525 16.7718 924.302 15.6176C923.257 14.6313 922.442 13.4364 921.343 12.4725C920.312 11.5687 919.471 10.6232 918.718 9.47099C917.345 7.37225 916.609 7.51169 914.276 7.72339C912.7 7.86691 911.346 7.04858 910.197 5.99005C907.473 3.48316 905.353 1.02615 901.564 0.188481C898.99 -0.38048 895.348 0.424615 892.947 1.45668C891.075 2.26076 889.335 3.37731 887.562 4.36561C885.773 5.36205 884.093 6.18547 882.927 7.95851C880.985 10.9102 881.247 14.2211 881.207 17.5738C881.177 19.9952 882.241 22.3383 881.65 24.8105C881.045 27.3469 879.578 27.5841 877.528 28.4523C876.624 28.835 875.593 29.4823 874.877 30.1337C874.156 30.7882 873.896 31.6554 873.292 32.4208C872.843 32.9907 872.177 33.86 871.527 34.205C870.492 34.7526 868.836 34.0839 867.782 33.7205C865.831 33.0488 864.207 32.3546 862.11 32.3699C860.145 32.3841 858.62 32.8645 856.83 33.69C854.524 34.7536 852.106 35.7897 850.189 37.4641C848.664 38.7974 847.545 40.0737 846.526 41.8173C845.5 43.573 844.764 45.5771 843.584 47.2209C841.874 49.6026 838.93 51.3003 835.964 51.3196C833.863 51.3339 831.998 50.653 830.138 49.7685C828.719 49.0926 827.559 48.6621 825.99 48.9389C823.522 49.3736 821.131 49.5334 818.644 49.8275C813.953 50.3822 809.784 52.4881 805.198 53.4957C801.516 54.3049 797.846 54.8779 794.118 55.399C791.423 55.7756 788.596 56.8678 786.096 57.9304C783.064 59.2189 780.207 60.0769 776.96 60.6887C771.418 61.7339 765.81 62.4647 760.25 63.4663C756.81 64.0861 753.355 64.5808 749.98 65.505C746.222 66.534 742.472 66.7935 738.637 67.3238C733.341 68.0556 728.26 69.8785 722.948 70.5238C716.296 71.332 709.386 69.1976 702.85 68.3426C697.111 67.5915 691.509 67.0307 685.729 67.0286C683.946 67.0276 682.15 66.935 680.37 67.0643C678.35 67.2108 676.453 67.8704 674.425 67.7503C670.25 67.504 666.037 67.2475 661.878 66.763C660.859 66.6439 655.257 66.1584 655.785 68.2795C656.084 69.4826 659.349 70.0505 660.31 70.3335C662.838 71.0765 665.336 71.7493 667.944 72.1381C672.578 72.8292 677.064 72.131 681.734 72.1116C686.143 72.0933 690.167 73.2882 694.503 73.7941C701.318 74.588 707.998 73.8114 714.807 73.6048C718.441 73.4948 722.022 74.0984 725.646 74.1778C728.983 74.2511 732.331 74.1503 735.669 74.1513C738.598 74.1524 741.622 73.9091 744.534 74.2541C745.341 74.3498 748.181 74.5035 748.412 75.6659C748.607 76.6521 746.16 77.2781 745.562 77.4827C742.827 78.4191 739.965 78.1269 737.136 78.4964C733.433 78.9799 729.966 79.6689 726.565 81.213C724.942 81.9499 721.284 82.6735 720.484 84.3509C720.949 86.0965 724.902 85.3565 725.997 85.3504C730.346 85.325 734.678 85.4858 739.013 85.0542C745.817 84.3763 752.635 84.0547 759.461 83.6924C765.98 83.3473 772.483 82.7244 778.999 82.3824C793.77 81.6058 808.765 83.5041 823.467 81.5336C830.96 80.529 837.55 76.9676 844.886 75.446C850.04 74.3763 854.921 74.6674 860.123 75.1671C864.03 75.5427 867.972 75.6597 871.824 76.4465C875.218 77.1397 878.37 77.2017 881.83 77.215C884.934 77.2272 887.961 76.7722 891.051 76.6715C893.552 76.59 896.605 76.2348 898.871 77.4562C900.351 78.2531 900.885 79.3666 900.55 81.0267C900.23 82.6176 899.147 84.0893 897.41 84.1473C895.508 84.2115 893.402 83.6425 891.512 83.4379C890.279 83.3046 889.064 83.1947 887.839 83.0338C887.128 82.9402 886.136 82.5982 885.523 83.1621C885.978 83.7148 887.108 84.4374 887.737 84.8262C889.91 86.1708 892.919 86.7071 895.384 87.0349C899.672 87.6059 903.874 86.8761 908.151 86.4944C910.892 86.2491 914.141 85.5855 916.904 85.9204C918.465 86.1087 920.005 86.5087 921.558 86.7509C925.253 87.328 928.949 88.0191 932.7 87.9265C936.947 87.8217 941.219 87.213 945.441 86.7479C950.193 86.2247 954.993 86.0608 959.725 85.3697C965.724 84.4934 971.594 82.7692 977.608 82.0404C983.126 81.3717 988.962 81.6028 994.492 82.0435C1000.74 82.5412 1006.88 82.1483 1013.05 80.9778C1016.08 80.4018 1019.12 79.4918 1022.21 79.2903C1025.06 79.1051 1027.93 79.2201 1030.78 79.2404C1035.69 79.2761 1040.19 78.8343 1045.03 77.9529C1049.68 77.103 1054.43 76.9035 1059.14 76.4272C1063.08 76.0282 1067.25 75.6323 1071.2 75.6577C1074.95 75.6811 1078.76 75.9061 1082.48 75.4226C1083.96 75.2302 1085.42 75.1295 1086.91 75.1661C1087.57 75.1824 1089 75.5346 1089.23 74.6694C1088.93 74.0872 1087.87 73.6994 1087.31 73.3625C1085.27 72.131 1083.28 71.6282 1080.98 71.0846C1078.26 70.4414 1075.51 69.9498 1072.8 69.2668C1070.21 68.6124 1067.75 67.6648 1065.1 67.2515C1063.06 66.933 1059.71 67.7594 1058.11 66.247C1057.36 65.5375 1056.88 64.4505 1056.3 63.5915C1055.54 62.4708 1054.47 61.9273 1053.69 60.9441C1052.9 59.9497 1053.04 58.4668 1052.63 57.3187C1052.27 56.2856 1051.71 55.8998 1050.83 55.3115C1049.69 54.54 1048.44 53.9822 1047.25 53.2759C1046 52.5339 1045.02 52.4698 1043.65 52.143C1042.07 51.7634 1040.63 50.9756 1039 50.7415C1036.86 50.4331 1032.13 49.8814 1031.17 47.4753C1030.72 46.3272 1031.5 44.7476 1031.73 43.5404C1032.06 41.7827 1032.59 39.745 1032.36 37.9709C1032.05 35.5841 1030.75 33.5943 1029.71 31.5424C1028.8 29.7592 1027.65 28.1408 1026.87 26.2894C1026.16 24.6049 1025.52 23.2543 1024.5 21.7021C1023.78 20.6253 1022.8 19.6034 1022.16 18.4899C1021.24 16.8878 1021.25 14.9387 1020.16 13.3988C1019.11 11.9341 1017.09 10.9153 1015.52 10.042C1012.88 8.57429 1010.04 7.2267 1007.31 5.93305C1002.98 3.88622 998.492 1.97272 993.717 3.44347C991.076 4.25772 987.976 6.13865 985.946 8.0094C984.365 9.4659 983.635 11.2522 982.532 13.0588C981.171 15.2909 979.531 17.3357 977.89 19.3632C977.12 20.3148 975.549 22.9795 974.316 23.2278C972.482 23.5973 971.488 20.898 969.759 20.5398C969.064 20.3952 968.446 20.6823 967.736 20.7291C966.986 20.7779 966.199 20.7097 965.447 20.7118C964.381 20.7148 964.174 20.6253 963.661 21.6909C963.181 22.6894 962.782 23.6736 962.545 24.7556C961.649 24.551 960.926 23.1718 960.322 22.4899C958.919 20.9082 957.584 20.779 955.662 20.209C952.137 19.1637 948.031 18.267 944.793 20.3891C942.56 21.8517 941 23.6299 939.55 25.8406C938.524 27.405 938.821 28.5938 938.754 30.3393C938.7 31.7378 937.99 33.117 937.583 34.4656C937.329 35.3104 936.79 37.2656 936.069 37.9251C935.074 38.8361 932.832 38.8188 931.594 39.5424C931.347 39.686 931.159 39.6768 930.941 39.8987C930.725 40.1185 930.724 40.6244 930.547 40.7771C930.031 41.2198 929.316 41.0641 928.557 41.0682C926.133 41.0844 925.543 40.2356 925.535 39.0305Z" fill="url(#paint0_linear_50_359)"/>
<path d="M173.401 75.3881C174.474 74.58 175.541 73.7515 176.563 72.9209C179.57 70.4782 182.825 68.3031 185.983 66.0344C188.649 64.1199 189.292 62.1931 190.798 59.3962C191.421 58.2399 191.867 57.3738 192.77 56.4608C193.295 55.9305 194.004 55.503 194.493 54.9147C195.775 53.3676 196.174 51.2913 197.391 49.6892C198.425 48.3274 199.391 47.2577 200.27 45.7604C203.335 40.5421 208.121 36.252 214.172 35.1273C220.788 33.8978 226.639 36.9441 233.221 36.8474C235.949 36.8067 238.695 36.6164 241.379 37.1741C244.563 37.8357 247.827 39.8266 250.557 41.5823C253.758 43.6413 257.722 46.1503 259.377 49.6943C261.147 53.4857 262.007 58.1972 262.457 62.3295C262.919 66.5748 263.745 70.5046 263.738 74.7927C263.735 76.4049 263.718 78.0192 263.733 79.6304C263.751 81.4859 264.165 82.0141 264.947 83.6549C265.935 85.7241 265.93 88.2442 267.796 89.7923C270.032 91.6457 273.255 92.4722 276.101 92.5048C277.884 92.5251 279.219 92.0539 280.904 91.5959C282.393 91.1908 282.816 91.1816 284.102 92.0966C285.252 92.916 286.162 93.8534 287.146 94.8549C287.939 95.6621 289.138 96.2595 289.725 97.1908C291.015 99.2377 290.842 102.26 290.865 104.534C290.902 108.182 292.996 110.98 294.819 113.971C296.32 116.432 296.161 118.92 296.905 121.618C297.687 124.455 299.095 127.179 301.048 129.399C304.55 133.376 309.911 133.068 313.97 135.893C317.949 138.664 322.639 140.162 327.49 140.548C330.488 140.786 334.06 140.309 337.052 139.851C339.79 139.432 342.498 138.283 344.688 136.622C349.129 133.256 351.499 128.241 356.718 126.033C361.179 124.144 365.564 122.256 369.6 119.539C371.375 118.344 373.097 116.761 375.037 115.816C376.661 115.024 378.706 114.798 380.45 114.372C385.071 113.241 389.137 110.752 393.703 109.389C395.992 108.706 398.411 108.478 400.796 108.772C403.204 109.068 404.421 110.197 406.156 111.811C407.441 113.008 408.802 113.797 410.186 114.814C411.902 116.075 412.535 119.2 413.359 121.08C414.063 122.686 414.684 124.391 415.848 125.736C417.367 127.489 418.672 128.49 419.955 130.469C422.464 134.343 426.135 136.253 430.679 136.595C432.532 136.734 434.373 136.96 436.114 137.646C437.762 138.294 438.971 139.518 440.757 139.867C445.971 140.886 451.132 138.714 455.836 142.158C457.685 143.512 459.074 144.778 461.217 145.741C464.403 147.173 467.176 147.476 470.644 147.447C473.986 147.418 477.62 146.979 480.935 147.551C483.312 147.962 485.584 149.075 487.976 149.416C490.032 149.709 491.336 149.692 493.208 150.742C495.157 151.835 496.79 153.759 498.438 155.249C500.187 156.831 501.002 157.313 503.111 158.101C505.497 158.992 506.798 161.18 509.026 162.385C512.243 164.126 515.695 162.139 519.019 162.479C521.314 162.714 523.495 163.238 525.656 163.967C527.696 164.655 529.798 165.749 531.868 166.28C534.624 166.988 537.486 167.527 540.296 167.992C542.404 168.341 545.499 168.135 547.36 169.298C547.399 170.923 543.705 171.557 542.558 171.878C537.63 173.26 531.893 173.736 526.818 174.081C518.741 174.631 510.671 175.3 502.572 175.3C489.613 175.3 476.617 174.399 463.67 173.912C447.978 173.323 432.306 172.479 416.608 172.031C396.335 171.454 376.072 171.521 355.802 171.082C335.488 170.643 315.324 168.924 294.979 169.094C274.127 169.269 253.426 169.941 232.579 168.989C216.966 168.275 201.324 167.95 185.723 167.075C171.139 166.258 156.696 164.044 142.153 162.81C122.024 161.101 101.623 161.007 81.4286 161.002C74.3884 161 67.3481 160.985 60.3078 161C54.0808 161.013 47.7826 161.174 41.6054 160.189C37.6736 159.562 33.8568 158.457 29.8995 157.917C27.4465 157.582 25.245 157.693 22.8989 156.945C29.6593 155.974 35.8619 152.972 42.495 151.504C46.4584 150.625 50.1765 149.547 54.0269 148.26C56.8829 147.305 60.1806 146.6 62.5735 144.674C66.1949 141.759 66.887 137.631 69.4692 134.115C71.6738 131.115 75.7573 130.011 77.8591 126.944C79.3604 124.753 80.1696 122.064 80.6978 119.49C81.7798 114.223 83.162 109.387 86.0271 104.735C89.7483 98.6921 93.7442 93.3363 100.326 90.3399C104.21 88.5719 108.627 87.8747 112.773 86.9821C115.905 86.3083 118.663 86.2554 121.837 86.9953C126.498 88.0824 131.474 88.6941 135.809 90.7755C138.9 92.2595 141.435 94.9292 144.788 95.7374C146.519 96.1547 148.478 96.6707 150.282 96.4376C151.682 96.2565 154.77 95.885 155.928 95.0809C156.837 94.4498 157.215 93.2386 157.697 92.3155C158.433 90.9027 158.863 90.2208 159.943 89.035C162.294 86.4559 163.853 83.5052 166.013 80.8426C166.544 80.1892 167.129 79.5815 167.805 79.0767C168.943 78.2248 170.279 77.6813 171.431 76.8416C172.085 76.3703 172.743 75.8828 173.401 75.3881Z" fill="url(#paint1_linear_50_359)"/>
<path d="M162.361 59.855C163.01 59.6891 163.654 59.5242 164.203 59.2392C166.376 58.1155 168.846 57.7206 171.324 57.9496C179.333 58.6875 185.779 62.8809 192.146 67.4978C196.924 70.9624 200.325 76.5116 201.84 82.133C202.79 85.6618 203.01 89.3839 203.257 93.0277C203.378 94.7947 202.888 96.3509 202.81 98.0924C202.747 99.4603 202.839 100.872 202.838 102.243C202.836 105.011 202.688 107.814 202.814 110.577C202.91 112.712 203.122 115.154 204.658 116.716C205.58 117.655 206.565 118.902 207.649 119.655C209.265 120.779 211.513 121.573 213.287 122.499C215.826 123.823 218.972 124.937 221.856 125.088C223.985 125.199 224.773 124.275 226.364 122.996C228.162 121.551 229.478 121.258 231.81 121.598C234.677 122.016 237.379 122.502 240.024 120.994C241.54 120.13 242.53 118.763 244.053 117.907C246.009 116.807 247.922 115.917 250.146 115.49C252.654 115.008 256.245 113.54 258.754 114.539C261.725 115.722 264.157 118.111 266.733 119.927C274.351 125.299 271.223 135.853 273.783 143.435C274.631 145.947 276.746 147.421 278.77 148.962C281.773 151.247 285.135 153.581 288.619 155.028C291.302 156.143 294.577 155.575 297.406 155.578C300.036 155.581 302.455 155.565 305.053 155.974C306.905 156.265 308.805 155.795 310.637 156.051C312.895 156.368 314.607 158.101 315.714 160.001C317.139 162.446 318.192 165.256 319.308 167.857C320.468 170.56 319.813 172.73 317.129 174.156C312.902 176.401 307.54 175.135 303.027 174.984C292.969 174.648 282.965 174.035 272.9 174.683C258.846 175.589 244.913 177.001 230.811 176.998C213.581 176.994 196.575 175.647 179.473 173.628C165.916 172.028 152.599 168.728 139.365 165.455C128.455 162.756 117.218 162.645 106.065 161.894C96.2256 161.233 86.5075 159.605 76.6835 158.823C67.8916 158.122 59.2096 156.561 50.4024 156.058C41.4089 155.544 32.5183 155.791 23.5544 156.812C20.0968 157.206 16.735 157.935 13.3121 158.54C10.3767 159.144 7.41074 159.457 4.41429 159.479C2.87025 159.751 1.39848 159.62 0 159.083C5.70284 157.25 12.3655 155.952 16.8195 151.727C19.6541 149.038 20.8388 146.01 21.705 142.342C21.9218 141.423 22.3859 140.799 22.9905 140.081C25.0119 137.685 26.5294 135.132 28.1345 132.418C29.073 130.833 29.8424 129.404 30.333 127.627C30.8949 125.594 31.0201 123.515 31.8323 121.548C32.1814 120.701 32.6079 119.546 33.2979 118.9C34.4094 117.86 36.4054 117.582 37.7112 116.866C39.1026 116.104 40.4532 115.25 41.5463 114.098C43.3998 112.142 43.9148 110.031 44.6069 107.475C46.2283 101.485 49.5495 95.9173 54.3342 91.8552C56.5398 89.9824 58.9673 88.6287 61.8325 88.0516C65.3918 87.3351 69.5567 87.0928 73.1751 86.9412C83.7176 86.4994 92.1615 94.2837 102.515 94.9361C104.703 95.0746 108.381 94.7967 108.985 92.2633C109.327 90.8282 109.229 89.3402 109.634 87.903C110.236 85.7707 111.665 84.3447 113.204 82.817C115.192 80.8434 117.299 79.2627 119.527 77.5793C121.18 76.3294 122.671 74.8698 124.398 73.7177C125.554 72.9462 126.549 72.2327 127.405 71.111C128.701 69.4133 129.686 68.423 131.568 67.3777C132.947 66.6113 134.297 65.7471 135.954 66.026C137.494 66.2845 138.489 67.4164 139.689 68.2835C141.916 69.8927 144.012 67.909 146.357 67.2576C147.942 66.8179 149.449 66.6988 151.045 66.1492C152.223 65.7441 153.599 65.682 154.72 65.1364C155.647 64.6855 156.209 63.8346 157.137 63.4346C157.551 63.2565 157.951 63.3949 158.361 63.0825C158.891 62.6784 158.982 61.9578 159.343 61.4356C160.026 60.4504 161.201 60.1512 162.361 59.855Z" fill="url(#paint2_linear_50_359)"/>
<path d="M607.629 132.476C607.413 132.578 607.153 132.525 606.821 132.191C606.253 131.619 606.421 130.959 606.255 130.197C606.181 129.86 605.937 129.629 605.936 129.315C605.936 129.011 606.228 128.57 606.248 128.199C606.296 127.26 606.552 126.48 606.613 125.576C606.713 124.103 606.626 119.795 604.423 120.134C602.846 120.378 600.156 121.893 599.135 119.826C598.453 118.446 600.135 116.456 598.924 115.203C598.444 114.705 597.676 114.379 597.137 113.928C596.376 113.291 595.908 113.023 594.987 112.736C594.377 112.546 593.689 112.207 593.051 112.156C592.432 112.107 591.841 112.381 591.24 112.467C590.287 112.606 589.933 112.965 589.215 113.551C587.805 114.703 585.903 115.081 584.271 115.777C583.368 116.162 582.387 116.113 581.45 116.349C580.468 116.597 579.948 117.21 579.333 117.972C578.566 118.922 577.903 119.873 577.625 121.079C577.226 122.813 577.197 124.662 577.009 126.426C576.853 127.876 576.784 128.58 575.187 128.562C573.68 128.544 571.291 128.099 569.985 128.984C568.913 129.711 567.968 130.719 567.015 131.59C566.155 132.375 565.109 132.921 564.269 133.75C562.957 135.042 562.116 136.558 561.68 138.349C561.208 140.292 561.268 142.062 559.443 143.34C558.58 143.943 557.443 144.172 556.413 144.255C555.074 144.362 554.159 143.878 552.901 143.624C552.007 143.443 550.779 143.402 549.892 143.599C548.533 143.901 547.489 144.979 546.162 145.417C544.378 146.004 542.492 145.992 540.675 146.378C539.132 146.706 537.76 147.223 536.295 147.776C534.465 148.47 532.568 148.292 530.66 148.309C529.983 148.314 529.384 148.299 528.748 148.574C528.138 148.839 527.793 149.291 527.146 149.443C525.746 149.768 524.251 149.036 522.874 149.012C521.603 148.989 520.354 149.397 519.081 149.435C517.781 149.475 516.501 149.321 515.203 149.488C513.26 149.739 511.379 150.163 509.58 150.896C507.743 151.644 504.792 151.427 502.902 151.19C500.002 150.827 497.163 149.844 494.242 149.479C492.453 149.256 490.597 149.419 488.8 149.41C487.042 149.401 485.364 149.363 483.634 149.737C479.731 150.578 475.881 151.901 471.921 152.478C469.82 152.783 467.859 152.58 465.759 152.432C462.704 152.215 459.644 152.295 456.582 152.078C450.826 151.667 445.13 151.615 439.362 151.612C435.352 151.609 431.396 151.475 427.393 151.308C423.858 151.162 420.252 151.741 416.764 152.237C414.798 152.517 413.015 152.906 411.126 153.526C409.44 154.079 407.128 154.575 405.852 155.938C404.053 157.862 408.291 158.194 409.436 158.231C414.113 158.383 418.788 157.001 423.42 157.797C426.833 158.383 430.189 159.483 433.646 159.787C437.468 160.123 441.287 159.248 445.105 159.285C449.231 159.324 453.177 158.603 457.28 158.271C461.543 157.927 465.967 158.107 470.245 158.171C474.363 158.232 478.409 159.98 482.555 159.598C484.738 159.398 487.109 158.996 489.171 160.099C489.302 162.568 481.276 162.049 481.876 163.994C483.533 164.634 485.785 163.709 487.405 163.398C489.115 163.07 490.894 162.974 492.62 162.739C494.863 162.434 496.539 163.182 498.681 163.611C502.306 164.335 506.084 164.189 509.745 164.79C515.053 165.663 520.247 165.202 525.555 164.642C530.684 164.1 536.188 163.068 541.335 163.894C545.499 164.562 549.613 164.625 553.787 165.056C556.135 165.298 558.425 165.49 560.785 165.52C562.806 165.545 564.771 164.956 566.817 165.127C567.97 165.223 569.273 165.31 569.298 166.609C569.306 167.018 569.149 167.428 569.48 167.695C569.922 168.051 571.093 167.439 571.589 167.371C573.218 167.153 574.992 167.34 576.638 167.34C577.742 167.34 578.844 167.339 579.947 167.348C582.017 167.366 584.037 166.977 586.101 166.936C588.547 166.888 591.018 167.35 593.478 167.355C595.736 167.359 597.975 167.361 600.212 167.018C603.228 166.556 606.129 165.576 609.163 165.127C612.127 164.688 615.095 164.307 618.09 164.13C624.108 163.772 630.125 163.422 636.143 163.042C639.326 162.84 642.496 162.551 645.688 162.575C649.342 162.603 653.009 162.285 656.656 162.432C660.647 162.593 664.575 162.748 668.552 162.245C671.795 161.833 675.025 161.291 678.248 160.748C680.488 160.372 682.623 160.011 684.9 160.01C686.654 160.009 688.135 160.31 689.848 160.674C690.862 160.89 692.025 161.304 693.057 161.057C693.253 161.01 694.284 160.662 694.339 160.3C694.451 159.555 692.02 159.322 691.509 159.212C691.562 158.747 692.203 158.688 692.238 158.195C692.261 157.857 691.589 156.912 691.536 156.498C691.315 154.736 692.435 152.941 692.869 151.31C693.207 150.038 693.741 148.154 692.931 147.038C692.54 146.501 691.932 146.181 691.542 145.631C691.129 145.048 690.907 144.243 690.703 143.56C690.245 142.027 690.195 140.282 690.454 138.698C690.685 137.286 690.877 136.166 690.48 134.773C690.311 134.181 690.056 133.67 689.823 133.107C689.474 132.263 689.413 131.202 688.846 130.477C686.902 127.988 685.003 125.61 682.69 123.433C681.495 122.309 680.637 121.892 679.011 121.683C675.885 121.279 672.881 122.348 669.884 123.069C668.009 123.52 665.9 123.878 664.835 125.674C664.453 126.32 664.216 127.129 664.008 127.852C663.827 128.479 663.792 129.805 663.421 130.36C662.336 131.988 660.568 129.741 660.358 128.483C659.901 125.73 661.827 123.32 661.856 120.587C661.878 118.575 662.212 116.655 662.478 114.653C662.78 112.379 663.337 110.59 662.095 108.471C661.218 106.974 660.192 105.802 659.534 104.17C658.678 102.046 658.436 99.7781 657.455 97.7017C655.551 93.6732 651.284 90.5699 647.04 89.3811C645.014 88.8131 642.948 89.2925 640.907 89.604C637.364 90.1454 633.811 91.3017 630.716 93.1165C628.727 94.2829 626.649 95.319 625.134 97.087C624.335 98.0193 623.4 98.9852 623.001 100.176C622.584 101.421 622.718 102.779 622.708 104.062C622.685 106.833 622.037 109.607 622.173 112.366C622.212 113.158 622.246 113.887 622.126 114.679C621.897 116.198 621.603 118.109 619.759 118.331C617.88 118.557 616.008 118.592 614.248 119.474C613.304 119.947 612.408 120.774 611.944 121.747C611.516 122.644 611.778 123.714 611.556 124.69C611.251 126.032 610.593 127.094 609.813 128.188C609.456 128.689 609.045 129.047 608.858 129.66C608.655 130.33 608.663 130.835 608.337 131.487C608.139 131.895 607.925 132.333 607.629 132.476Z" fill="url(#paint3_linear_50_359)"/>
<defs>
<linearGradient id="paint0_linear_50_359" x1="872.483" y1="93.4266" x2="872.483" y2="14.2254" gradientUnits="userSpaceOnUse">
<stop stop-color="#FBB294" stop-opacity="0"/>
<stop offset="1" stop-color="#FFEFEE"/>
</linearGradient>
<linearGradient id="paint1_linear_50_359" x1="285.13" y1="184.076" x2="285.13" y2="57.5585" gradientUnits="userSpaceOnUse">
<stop stop-color="#FBB294" stop-opacity="0"/>
<stop offset="1" stop-color="#FFEFEE"/>
</linearGradient>
<linearGradient id="paint2_linear_50_359" x1="159.93" y1="184.435" x2="159.93" y2="77.1561" gradientUnits="userSpaceOnUse">
<stop stop-color="#FBB294" stop-opacity="0"/>
<stop offset="1" stop-color="#FFEFEE"/>
</linearGradient>
<linearGradient id="paint3_linear_50_359" x1="549.882" y1="163.316" x2="549.882" y2="108.414" gradientUnits="userSpaceOnUse">
<stop stop-color="#FBB294" stop-opacity="0"/>
<stop offset="1" stop-color="#FFEFEE"/>
</linearGradient>
</defs>
</svg>
